<?xml version="1.0" encoding="utf-8"?>
<!-- Generator: Adobe Illustrator 22.0.0, SVG Export Plug-In . SVG Version: 6.00 Build 0)  -->
<svg version="1.1" id="bold" xmlns="http://www.w3.org/2000/svg" xmlns:xlink="http://www.w3.org/1999/xlink" x="0px" y="0px"
	 viewBox="0 0 44.5 44.5" height="33" width="33" style="enable-background:new 0 0 44.5 44.5;" xml:space="preserve">
<style type="text/css">
	.st0{fill:#00869F;}
	.st1{fill:none;stroke:#00869F;stroke-width:2;stroke-miterlimit:10;}
</style>
<path class="st0" d="M17.4,29.9h-6.3c-0.5,0-0.9-0.4-0.9-0.9s0.4-0.9,0.9-0.9h6.3c0.5,0,0.9,0.4,0.9,0.9S18,29.9,17.4,29.9z"/>
<path class="st0" d="M17.9,31.1c-0.2,0-0.5,0-0.7-0.1l0.6,4.3c0.1,0.5,0.5,0.8,0.9,0.8c0,0,0.1,0,0.1,0c0.5-0.1,0.9-0.5,0.8-1.1
	l-0.5-3.9H17.9z"/>
<path class="st0" d="M34.7,31.1h-0.7l0.6,4.2c0.1,0.5,0.5,0.8,0.9,0.8c0,0,0.1,0,0.1,0c0.5-0.1,0.9-0.5,0.8-1.1l-0.6-4.3
	C35.6,31,35.2,31.1,34.7,31.1z"/>
<path class="st0" d="M13.3,11.1L9,35c-0.1,0.5,0.2,1,0.8,1.1c0.1,0,0.1,0,0.2,0c0.4,0,0.8-0.3,0.9-0.8l3.2-18.1L13.3,11.1z"/>
<circle class="st1" cx="22.1" cy="22.2" r="21"/>
<g>
	<path class="st0" d="M32.7,6.9c-0.1-0.5-0.5-0.8-0.9-0.8H14.9c-0.3,0-0.5,0.1-0.7,0.3C14.1,6.6,14,6.9,14,7.2l2.5,18.7L32.8,7.2
		L32.7,6.9z"/>
	<path class="st0" d="M16.9,28.6l0.1,0.4c0.1,0.5,0.5,0.8,0.9,0.8h16.9c0.3,0,0.5-0.1,0.7-0.3s0.3-0.5,0.2-0.7L33.1,10L16.9,28.6z"
		/>
	<polygon class="st0" points="7.1,36.6 8.7,37.9 16.9,28.6 16.5,25.8 	"/>
	<polygon class="st0" points="36.6,6 35,4.6 32.8,7.2 33.1,10 	"/>
</g>
</svg>
